<svg width="40" height="40" viewBox="0 0 40 40" fill="none" xmlns="http://www.w3.org/2000/svg">
<g id="ico_40">
<g id="_&#234;&#178;&#169;&#235;&#166;&#172;_&#235;&#170;&#168;&#235;&#147;&#156;">
<g id="Group">
<path id="Vector" d="M23.3411 30.7633L22.1918 29.6265C21.8727 29.3108 21.3544 29.3108 21.0353 29.6265L19.886 30.7633C19.5668 31.0789 19.0486 31.0789 18.7295 30.7633L17.5801 29.6265C17.261 29.3108 16.7427 29.3108 16.4236 29.6265L15.2743 30.7633C14.9552 31.0789 14.4369 31.0789 14.1178 30.7633L12.9685 29.6265C12.6493 29.3108 12.1311 29.3108 11.8119 29.6265L10.6626 30.7633C10.3435 31.0789 9.82522 31.0789 9.5061 30.7633L8.35678 29.6265C8.03766 29.3108 7.51939 29.3108 7.20026 29.6265L6.07734 30.7372C5.67903 31.1311 5 30.8511 5 30.2957V7.15169C5.0072 5.41209 6.43485 4 8.19362 4H25.8125C27.5737 4 28.9989 5.41209 28.9989 7.15169V30.2934C28.9989 30.8487 28.3199 31.1288 27.9216 30.7348L26.7987 29.6241C26.4796 29.3085 25.9613 29.3085 25.6422 29.6241L24.4928 30.7609C24.1737 31.0765 23.6554 31.0765 23.3363 30.7609L23.3411 30.7633Z" fill="#F9D2C0"/>
<path id="Vector_2" d="M21.2005 10.7966H20.6456L21.0115 9.91655C21.1587 9.55975 20.9439 9.16692 20.5302 9.03998C20.1165 8.91304 19.6611 9.0983 19.5139 9.45511L18.4678 11.9767L17.7677 9.62836C17.6782 9.32474 17.36 9.11374 16.998 9.11374C16.636 9.11374 16.3178 9.32645 16.2283 9.62836L15.5282 11.9767L14.4821 9.45511C14.3349 9.0983 13.8775 8.91304 13.4658 9.03998C13.0521 9.16692 12.8373 9.55975 12.9845 9.91655L13.3504 10.7966H12.7955C12.356 10.7966 12 11.1036 12 11.4827C12 11.8618 12.356 12.1689 12.7955 12.1689H13.9193L14.9037 14.5447C15.0211 14.8277 15.3353 15.013 15.6893 14.9993C16.0394 14.9856 16.3357 14.7763 16.4232 14.4847L17 12.5514L17.5768 14.4847C17.6643 14.7763 17.9626 14.9856 18.3107 14.9993C18.3226 14.9993 18.3345 14.9993 18.3465 14.9993C18.6806 14.9993 18.9809 14.8175 19.0963 14.5447L20.0807 12.1689H21.2045C21.644 12.1689 22 11.8618 22 11.4827C22 11.1036 21.644 10.7966 21.2045 10.7966H21.2005Z" fill="#EF6250"/>
<g id="Group_2">
<path id="Vector_3" d="M10.5145 21.4289H18.4709C19.0012 21.4289 19.4307 21.0041 19.4307 20.4796C19.4307 19.9551 19.0012 19.5303 18.4709 19.5303H10.5145C9.98418 19.5303 9.55469 19.9551 9.55469 20.4796C9.55469 21.0041 9.98418 21.4289 10.5145 21.4289Z" fill="white"/>
<path id="Vector_4" d="M21.9051 21.4289H23.4983C24.0286 21.4289 24.4581 21.0041 24.4581 20.4796C24.4581 19.9551 24.0286 19.5303 23.4983 19.5303H21.9051C21.3748 19.5303 20.9453 19.9551 20.9453 20.4796C20.9453 21.0041 21.3748 21.4289 21.9051 21.4289Z" fill="white"/>
<path id="Vector_5" d="M23.4953 22.957H10.5145C9.98418 22.957 9.55469 23.3818 9.55469 23.9063C9.55469 24.4308 9.98418 24.8556 10.5145 24.8556H23.4929C24.0232 24.8556 24.4527 24.4308 24.4527 23.9063C24.4527 23.3818 24.0232 22.957 23.4929 22.957H23.4953Z" fill="white"/>
</g>
</g>
<g id="Group 1707483844">
<path id="Vector_6" d="M36.9026 37.9568C36.5059 37.9568 36.1122 37.8047 35.8084 37.5035L32.4561 34.6519C31.8485 34.0465 31.8485 33.0653 32.453 32.4568C33.0574 31.8482 34.037 31.8482 34.6445 32.4537L37.9969 35.3052C38.6044 35.9107 38.6044 36.8918 38 37.5004C37.6962 37.8047 37.2994 37.9568 36.9026 37.9568Z" fill="#EF6250"/>
<path id="Vector_7" d="M22.5002 28.9202C22.4718 25.8947 24.8946 23.4722 27.9217 23.5002C30.9682 23.5285 33.4711 26.0313 33.4998 29.0798C33.5282 32.1058 31.1065 34.5278 28.0798 34.4998C25.0316 34.4715 22.5289 31.9685 22.5002 28.9202Z" fill="white" stroke="#EF6250" stroke-width="3"/>
</g>
<g id="Group 1707483845">
<path id="Vector_8" d="M36.9026 37.9568C36.5059 37.9568 36.1122 37.8047 35.8084 37.5035L32.4561 34.6519C31.8485 34.0465 31.8485 33.0653 32.453 32.4568C33.0574 31.8482 34.037 31.8482 34.6445 32.4537L37.9969 35.3052C38.6044 35.9107 38.6044 36.8918 38 37.5004C37.6962 37.8047 37.2994 37.9568 36.9026 37.9568Z" fill="#EF6250"/>
<path id="Vector_9" d="M22.5002 28.9202C22.4718 25.8947 24.8946 23.4722 27.9217 23.5002C30.9682 23.5285 33.4711 26.0313 33.4998 29.0798C33.5282 32.1058 31.1065 34.5278 28.0798 34.4998C25.0316 34.4715 22.5289 31.9685 22.5002 28.9202Z" fill="white" stroke="#EF6250" stroke-width="3"/>
</g>
</g>
</g>
</svg>
