<svg width="33" height="32" viewBox="0 0 33 32" fill="none" xmlns="http://www.w3.org/2000/svg">
<g id="ico">
<g id="Group">
<path id="vector" d="M28.4063 13.333V11.9997C28.4063 10.5263 27.2129 9.33301 25.7396 9.33301H7.07292C5.59958 9.33301 4.40625 10.5263 4.40625 11.9997V23.9997C4.40625 25.473 5.59958 26.6663 7.07292 26.6663H15.0729" stroke="#1D1D1D" stroke-width="1.6" stroke-linecap="round" stroke-linejoin="round"/>
<path id="vector_2" d="M13.0703 17.9997H19.737" stroke="#1D1D1D" stroke-width="1.6" stroke-linecap="round" stroke-linejoin="round"/>
<path id="vector_3" d="M16.4089 14.667V21.3337" stroke="#1D1D1D" stroke-width="1.6" stroke-linecap="round" stroke-linejoin="round"/>
<path id="vector_4" d="M21.737 9.33333L20.909 6.02C20.6116 4.83333 19.545 4 18.321 4H14.485C13.261 4 12.1943 4.83333 11.8983 6.02L11.0703 9.33333" stroke="#1D1D1D" stroke-width="1.6" stroke-linecap="round" stroke-linejoin="round"/>
<g id="Group 1707483833">
<path id="vector_5" fill-rule="evenodd" clip-rule="evenodd" d="M20.1473 27.1141C18.7198 25.6866 18.7198 23.372 20.1473 21.9445L23.507 18.5848C24.9346 17.1572 27.2491 17.1572 28.6767 18.5848V18.5848C30.1043 20.0123 30.1043 22.3269 28.6767 23.7545L25.317 27.1141C23.8895 28.5417 21.5749 28.5417 20.1473 27.1141V27.1141Z" stroke="#1D1D1D" stroke-width="1.6" stroke-linecap="round" stroke-linejoin="round"/>
<path id="vector_6" d="M21.8281 20.2646L27.0023 25.4388" stroke="#1D1D1D" stroke-width="1.6" stroke-linecap="round" stroke-linejoin="round"/>
</g>
</g>
</g>
</svg>
