<svg width="40" height="40" viewBox="0 0 40 40" fill="none" xmlns="http://www.w3.org/2000/svg">
<g id="ico_40">
<g id="Group">
<path id="Vector" d="M27.3336 6H6.66644C5.19381 6 4 7.19381 4 8.66644V30.9558C4 32.4284 5.19381 33.6222 6.66644 33.6222H27.3336C28.8062 33.6222 30 32.4284 30 30.9558V8.66644C30 7.19381 28.8062 6 27.3336 6Z" fill="#C5E8DC"/>
<g id="Group_2">
<path id="Vector_2" d="M24.3444 16.3111H10.1556C9.51711 16.3111 9 15.794 9 15.1556C9 14.5171 9.51711 14 10.1556 14H24.3444C24.9829 14 25.5 14.5171 25.5 15.1556C25.5 15.794 24.9829 16.3111 24.3444 16.3111Z" fill="white"/>
<path id="Vector_3" d="M22.7526 20.2486H15.0306C14.3921 20.2486 13.875 19.7315 13.875 19.0931C13.875 18.4546 14.3921 17.9375 15.0306 17.9375H22.7526C23.391 17.9375 23.9081 18.4546 23.9081 19.0931C23.9081 19.7315 23.391 20.2486 22.7526 20.2486Z" fill="white"/>
<path id="Vector_4" d="M11.3516 20.2486H10.1556C9.51711 20.2486 9 19.7315 9 19.0931C9 18.4546 9.51711 17.9375 10.1556 17.9375H11.3516C11.99 17.9375 12.5071 18.4546 12.5071 19.0931C12.5071 19.7315 11.99 20.2486 11.3516 20.2486Z" fill="white"/>
<path id="Vector_5" d="M22.7511 24.189H10.1556C9.51711 24.189 9 23.6719 9 23.0335C9 22.395 9.51711 21.8779 10.1556 21.8779H22.7511C23.3896 21.8779 23.9067 22.395 23.9067 23.0335C23.9067 23.6719 23.3896 24.189 22.7511 24.189Z" fill="white"/>
</g>
<path id="Vector_6" d="M21.6205 9.18556H12.376C11.232 9.18556 10.3047 8.25822 10.3047 7.11422V5.274C10.3047 4.572 10.8738 4 11.5787 4H22.4207C23.1227 4 23.6947 4.56911 23.6947 5.274V7.11422C23.6947 8.25822 22.7674 9.18556 21.6234 9.18556H21.6205Z" fill="#27C590"/>
</g>
<g id="Group_3">
<path id="Vector_7" d="M29 37C33.4183 37 37 33.4183 37 29C37 24.5817 33.4183 21 29 21C24.5817 21 21 24.5817 21 29C21 33.4183 24.5817 37 29 37Z" fill="#27C590"/>
<path id="Vector_8" d="M28.2091 33C27.9495 33 27.7029 32.8873 27.5289 32.6907L25.2287 30.0772C24.8964 29.6971 24.9302 29.1178 25.304 28.7822C25.6779 28.4467 26.2542 28.4808 26.5865 28.8582L28.152 30.6381L31.3687 26.3627C31.6724 25.959 32.2436 25.8804 32.6408 26.1871C33.0406 26.4938 33.1185 27.0705 32.8147 27.4715L28.9283 32.6356C28.7647 32.8532 28.5103 32.9869 28.2403 32.9974C28.2273 32.9974 28.2169 32.9974 28.2065 32.9974L28.2091 33Z" fill="white"/>
</g>
</g>
</svg>
