<svg width="40" height="40" viewBox="0 0 40 40" fill="none" xmlns="http://www.w3.org/2000/svg">
<g id="ico_40">
<g id="_&#234;&#178;&#169;&#235;&#166;&#172;_&#235;&#170;&#168;&#235;&#147;&#156;">
<path id="Vector" d="M24.714 4H7.28602C5.4712 4 4 5.49369 4 7.33625V28.6637C4 30.5063 5.4712 32 7.28602 32H24.714C26.5288 32 28 30.5063 28 28.6637V7.33625C28 5.49369 26.5288 4 24.714 4Z" fill="#F9D2C0"/>
<g id="Group">
<path id="Vector_2" d="M17.9712 20.4193L15.9721 18.5698L14.0312 20.4193V15.0596H17.9712V20.4193Z" fill="#EF6250"/>
<path id="Vector_3" d="M15.9969 8.11719L17.0244 9.32691L18.6034 8.92299L18.6874 10.4772L20.2147 11.0328L19.3229 12.3369L20.2147 13.6409L18.6874 14.1966L18.6034 15.7507L17.0244 15.3468L15.9969 16.5565L14.9694 15.3468L13.3925 15.7507L13.3085 14.1966L11.7812 13.6409L12.6731 12.3369L11.7812 11.0328L13.3085 10.4772L13.3925 8.92299L14.9694 9.32691L15.9969 8.11719Z" fill="#FF9E01"/>
</g>
<g id="Group_2">
<g id="Group_3">
<path id="Vector_4" d="M23.6198 25.6246H21.4059C20.8363 25.6246 20.375 25.1855 20.375 24.6434C20.375 24.1012 20.8363 23.6621 21.4059 23.6621H23.6198C24.1894 23.6621 24.6507 24.1012 24.6507 24.6434C24.6507 25.1855 24.1894 25.6246 23.6198 25.6246Z" fill="white"/>
<path id="Vector_5" d="M14.9621 25.6246H8.36684C7.79727 25.6246 7.33594 25.1855 7.33594 24.6434C7.33594 24.1012 7.79727 23.6621 8.36684 23.6621H14.9621C15.5316 23.6621 15.993 24.1012 15.993 24.6434C15.993 25.1855 15.5316 25.6246 14.9621 25.6246Z" fill="white"/>
<path id="Vector_6" d="M18.5676 25.6246H17.8434C17.2738 25.6246 16.8125 25.1855 16.8125 24.6434C16.8125 24.1012 17.2738 23.6621 17.8434 23.6621H18.5676C19.1372 23.6621 19.5985 24.1012 19.5985 24.6434C19.5985 25.1855 19.1372 25.6246 18.5676 25.6246Z" fill="white"/>
</g>
<g id="Group_4">
<path id="Vector_7" d="M23.6177 28.6344H15.2184C14.6488 28.6344 14.1875 28.1953 14.1875 27.6531C14.1875 27.111 14.6488 26.6719 15.2184 26.6719H23.6177C24.1873 26.6719 24.6486 27.111 24.6486 27.6531C24.6486 28.1953 24.1873 28.6344 23.6177 28.6344Z" fill="white"/>
<path id="Vector_8" d="M12.1297 28.6344H8.36684C7.79727 28.6344 7.33594 28.1953 7.33594 27.6531C7.33594 27.111 7.79727 26.6719 8.36684 26.6719H12.1297C12.6992 26.6719 13.1606 27.111 13.1606 27.6531C13.1606 28.1953 12.6992 28.6344 12.1297 28.6344Z" fill="white"/>
</g>
</g>
</g>
<g id="Group_5">
<path id="Vector_9" d="M29 37C33.4183 37 37 33.4183 37 29C37 24.5817 33.4183 21 29 21C24.5817 21 21 24.5817 21 29C21 33.4183 24.5817 37 29 37Z" fill="#EF6250"/>
<path id="Vector_10" d="M28.2091 33C27.9495 33 27.7029 32.8873 27.5289 32.6907L25.2287 30.0772C24.8964 29.6971 24.9302 29.1178 25.304 28.7822C25.6779 28.4467 26.2542 28.4808 26.5865 28.8582L28.152 30.6381L31.3687 26.3627C31.6724 25.959 32.2436 25.8804 32.6408 26.1871C33.0406 26.4938 33.1185 27.0705 32.8147 27.4715L28.9283 32.6356C28.7647 32.8532 28.5103 32.9869 28.2403 32.9974C28.2273 32.9974 28.2169 32.9974 28.2065 32.9974L28.2091 33Z" fill="white"/>
</g>
</g>
</svg>
