<svg width="40" height="40" viewBox="0 0 40 40" fill="none" xmlns="http://www.w3.org/2000/svg">
<g id="ico_40">
<g id="_&#234;&#178;&#169;&#235;&#166;&#172;_&#235;&#170;&#168;&#235;&#147;&#156;">
<g id="Group">
<path id="Vector" d="M4 6.59733V30.2089C4 31.6441 5.1621 32.8063 6.59733 32.8063H26.4174C27.8526 32.8063 29.0147 31.6441 29.0147 30.2089V10.2175L22.7945 4H6.59733C5.1621 4 4 5.1621 4 6.59733Z" fill="#FFE682"/>
<g id="Group_2">
<path id="Vector_2" d="M21.8538 14.5699H15.074C14.5278 14.5699 14.0859 14.128 14.0859 13.5818C14.0859 13.0356 14.5278 12.5938 15.074 12.5938H21.8538C22.4001 12.5938 22.8419 13.0356 22.8419 13.5818C22.8419 14.128 22.4001 14.5699 21.8538 14.5699Z" fill="white"/>
<path id="Vector_3" d="M10.8042 15.2734C10.8042 15.2734 10.7801 15.2734 10.7667 15.2734C10.4507 15.2627 10.1616 15.0993 9.98483 14.8369L8.71562 12.9545C8.41036 12.502 8.53086 11.8861 8.98338 11.5809C9.43591 11.2756 10.0518 11.3961 10.357 11.8486L10.8685 12.6091L12.6545 10.3465C12.9918 9.91805 13.6157 9.84308 14.0442 10.1831C14.4726 10.5205 14.5449 11.1444 14.2075 11.5728L11.5807 14.8985C11.3933 15.1368 11.1068 15.276 10.8042 15.276V15.2734Z" fill="white"/>
</g>
<g id="Group_3">
<path id="Vector_4" d="M21.8538 20.5913H15.074C14.5278 20.5913 14.0859 20.1495 14.0859 19.6033C14.0859 19.057 14.5278 18.6152 15.074 18.6152H21.8538C22.4001 18.6152 22.8419 19.057 22.8419 19.6033C22.8419 20.1495 22.4001 20.5913 21.8538 20.5913Z" fill="white"/>
<path id="Vector_5" d="M10.8042 21.2949C10.8042 21.2949 10.7801 21.2949 10.7667 21.2949C10.4507 21.2841 10.1616 21.1208 9.98483 20.8584L8.71562 18.976C8.41036 18.5235 8.53086 17.9076 8.98338 17.6024C9.43591 17.2971 10.0518 17.4176 10.357 17.8701L10.8685 18.6306L12.6545 16.368C12.9918 15.9395 13.6157 15.8646 14.0442 16.2046C14.4726 16.542 14.5449 17.1659 14.2075 17.5943L11.5807 20.92C11.3933 21.1583 11.1068 21.2975 10.8042 21.2975V21.2949Z" fill="white"/>
</g>
<g id="Group_4">
<path id="Vector_6" d="M21.8538 26.6089H15.074C14.5278 26.6089 14.0859 26.1671 14.0859 25.6209C14.0859 25.0746 14.5278 24.6328 15.074 24.6328H21.8538C22.4001 24.6328 22.8419 25.0746 22.8419 25.6209C22.8419 26.1671 22.4001 26.6089 21.8538 26.6089Z" fill="white"/>
<path id="Vector_7" d="M10.8042 27.3144C10.8042 27.3144 10.7801 27.3144 10.7667 27.3144C10.4507 27.3037 10.1616 27.1403 9.98483 26.8779L8.71562 24.9955C8.41036 24.543 8.53086 23.9271 8.98338 23.6219C9.43591 23.3166 10.0518 23.4371 10.357 23.8897L10.8685 24.6501L12.6545 22.3875C12.9918 21.9591 13.6157 21.8841 14.0442 22.2242C14.4726 22.5615 14.5449 23.1854 14.2075 23.6139L11.5807 26.9395C11.3933 27.1778 11.1068 27.3171 10.8042 27.3171V27.3144Z" fill="white"/>
</g>
<path id="Vector_8" d="M29.0171 10.2175L22.7969 4V8.42349C22.7969 9.41423 23.6002 10.2175 24.5909 10.2175H29.0144H29.0171Z" fill="#FFD255"/>
</g>
<g id="Group_5">
<path id="Vector_9" d="M29.235 37.544C26.9269 35.8892 22 31.6291 22 25.4223V23.5827C24.7044 23.0766 27.2 21.8396 29.235 20C31.2701 21.8396 33.7656 23.0793 36.4701 23.5827V25.4223C36.4701 31.6291 31.5432 35.8892 29.235 37.544Z" fill="#EF6250"/>
<path id="Vector_10" d="M28.7942 32.165C28.5265 32.165 28.2721 32.0498 28.0927 31.849L25.7203 29.1794C25.3776 28.7911 25.4124 28.1994 25.7979 27.8566C26.1835 27.5139 26.778 27.5487 27.1207 27.9343L28.7353 29.7524L32.053 25.3851C32.3662 24.9728 32.9553 24.8925 33.365 25.2057C33.7774 25.519 33.8577 26.1081 33.5444 26.5178L29.536 31.7928C29.3673 32.015 29.1049 32.1516 28.8264 32.1623C28.813 32.1623 28.8023 32.1623 28.7916 32.1623L28.7942 32.165Z" fill="white"/>
</g>
</g>
</g>
</svg>
