<svg width="122" height="132" viewBox="0 0 122 132" fill="none" xmlns="http://www.w3.org/2000/svg">
<path d="M62.6945 10.7319C31.63 11.0048 6.03585 33.7198 6.28699 63.0167C6.41802 77.6324 13.9412 92.5756 27.3825 102.432L23.8884 119.286C89.4242 138.191 120.248 90.5672 119.997 62.1435C119.746 33.174 94.3159 10.459 62.6945 10.7319ZM67.0948 91.233L66.9529 85.3496C44.0558 85.2841 34.0322 70.9631 33.9339 59.3382C33.8574 50.4203 39.983 40.9785 50.1486 40.8912C58.72 40.8148 63.0111 47.5823 63.0111 47.5823C63.0111 47.5823 66.6035 40.6947 76.103 40.6183C82.8837 40.5637 92.001 46.2507 92.1212 59.4474C92.2303 71.8473 83.2768 85.4479 67.0948 91.2221V91.233Z" fill="#EF413D"/>
<path d="M67.6263 113.698L67.0913 91.2341C57.2096 94.7598 44.62 95.371 29.7483 91.0049L27.3789 102.433C37.5991 109.932 51.2369 114.484 67.6263 113.698Z" fill="#851013"/>
<path d="M65.22 80.4064C65.6576 80.4672 66.0616 80.1616 66.1224 79.724C66.1831 79.2864 65.8776 78.8824 65.4399 78.8216L65.22 80.4064ZM40.5513 58.4748L39.7529 58.4249L40.5513 58.4748ZM63.5121 55.924L62.8464 56.3677C63.0159 56.6219 63.3154 56.7574 63.6182 56.7169C63.9211 56.6763 64.1744 56.4668 64.271 56.1769L63.5121 55.924ZM78.0907 48.6344L77.8245 49.3888L78.0907 48.6344ZM85.7368 62.1196L86.4736 62.4313L85.7368 62.1196ZM75.5317 73.7826L84.2477 70.7224L77.2395 64.7042L75.5317 73.7826ZM64.0284 78.5932C63.5939 78.5129 63.1766 78.8 63.0963 79.2344C63.016 79.6689 63.3031 80.0862 63.7376 80.1665L64.0284 78.5932ZM60.8142 79.4942C61.2402 79.6114 61.6805 79.3611 61.7978 78.9351C61.915 78.5091 61.6647 78.0688 61.2387 77.9515L60.8142 79.4942ZM58.5097 77.078C58.0948 76.9262 57.6354 77.1396 57.4836 77.5546C57.3319 77.9695 57.5452 78.4289 57.9602 78.5807L58.5097 77.078ZM55.1902 77.4394C55.5917 77.6239 56.0667 77.4482 56.2513 77.0467C56.4359 76.6453 56.2601 76.1703 55.8586 75.9857L55.1902 77.4394ZM53.3046 74.6841C52.9195 74.4676 52.4317 74.6044 52.2153 74.9896C51.9988 75.3747 52.1356 75.8624 52.5208 76.0789L53.3046 74.6841ZM49.9706 74.5021C50.3362 74.7503 50.8337 74.6551 51.0818 74.2895C51.33 73.9239 51.2348 73.4264 50.8692 73.1783L49.9706 74.5021ZM48.5783 71.4683C48.2368 71.1879 47.7327 71.2374 47.4523 71.5788C47.1719 71.9203 47.2214 72.4244 47.5628 72.7048L48.5783 71.4683ZM45.3332 70.6781C45.6441 70.9921 46.1506 70.9946 46.4646 70.6837C46.7785 70.3728 46.781 69.8663 46.4701 69.5523L45.3332 70.6781ZM44.5987 67.4269C44.328 67.0777 43.8254 67.0141 43.4763 67.2848C43.1271 67.5555 43.0635 68.058 43.3342 68.4072L44.5987 67.4269ZM41.6444 65.8702C41.8602 66.2557 42.3476 66.3934 42.7332 66.1776C43.1188 65.9619 43.2564 65.4744 43.0407 65.0888L41.6444 65.8702ZM41.9111 62.5534C41.7724 62.1339 41.3198 61.9064 40.9003 62.0452C40.4809 62.184 40.2533 62.6365 40.3921 63.056L41.9111 62.5534ZM39.7653 60.0006C39.7992 60.4411 40.1838 60.7707 40.6243 60.7368C41.0649 60.7029 41.3945 60.3183 41.3606 59.8778L39.7653 60.0006ZM41.55 57.1487C41.6496 56.7182 41.3813 56.2886 40.9508 56.189C40.5203 56.0895 40.0907 56.3578 39.9912 56.7883L41.55 57.1487ZM41.2439 53.7468C41.0125 54.1232 41.1301 54.6159 41.5065 54.8473C41.8829 55.0786 42.3756 54.9611 42.607 54.5846L41.2439 53.7468ZM44.4139 52.4471C44.7449 52.1544 44.7759 51.6488 44.4832 51.3179C44.1904 50.9869 43.6849 50.9559 43.3539 51.2486L44.4139 52.4471ZM46.0564 49.4447C45.6598 49.6394 45.4961 50.1187 45.6908 50.5153C45.8855 50.912 46.3648 51.0757 46.7615 50.881L46.0564 49.4447ZM49.4451 49.9655C49.8779 49.8766 50.1567 49.4537 50.0678 49.0209C49.9789 48.5881 49.556 48.3093 49.1232 48.3982L49.4451 49.9655ZM52.3485 48.1468C51.9072 48.1262 51.5327 48.4673 51.5121 48.9086C51.4915 49.35 51.8326 49.7244 52.2739 49.7451L52.3485 48.1468ZM55.0742 50.2256C55.4973 50.3528 55.9434 50.1128 56.0706 49.6897C56.1978 49.2666 55.9578 48.8205 55.5347 48.6933L55.0742 50.2256ZM58.4908 49.9763C58.1083 49.7552 57.619 49.8862 57.3979 50.2687C57.1769 50.6513 57.3078 51.1406 57.6904 51.3616L58.4908 49.9763ZM60.0121 53.0546C60.3411 53.3496 60.8468 53.322 61.1418 52.993C61.4367 52.6641 61.4092 52.1583 61.0802 51.8634L60.0121 53.0546ZM63.2486 54.1937C62.9763 53.8458 62.4735 53.7845 62.1256 54.0569C61.7777 54.3292 61.7164 54.832 61.9887 55.1799L63.2486 54.1937ZM64.8179 54.9664C65.0352 54.5817 64.8995 54.0937 64.5148 53.8764C64.1301 53.6591 63.6421 53.7948 63.4248 54.1795L64.8179 54.9664ZM65.3498 51.6591C65.0408 51.9749 65.0463 52.4814 65.3621 52.7904C65.6779 53.0994 66.1844 53.0939 66.4934 52.7781L65.3498 51.6591ZM68.6507 50.9929C69.018 50.7473 69.1167 50.2505 68.8712 49.8832C68.6257 49.5159 68.1289 49.4171 67.7616 49.6627L68.6507 50.9929ZM70.5352 48.201C70.1244 48.3636 69.9233 48.8285 70.0859 49.2393C70.2486 49.6501 70.7134 49.8513 71.1242 49.6886L70.5352 48.201ZM73.7974 48.9882C74.2357 48.9324 74.5458 48.5319 74.4901 48.0936C74.4344 47.6553 74.0339 47.3452 73.5956 47.4009L73.7974 48.9882ZM76.7952 47.4687C76.3602 47.3913 75.9448 47.6812 75.8674 48.1162C75.79 48.5512 76.0799 48.9665 76.5149 49.0439L76.7952 47.4687ZM79.1286 49.9088C79.5319 50.0892 80.0051 49.9085 80.1855 49.5052C80.3659 49.1019 80.1852 48.6287 79.7819 48.4483L79.1286 49.9088ZM82.4704 49.955C82.1075 49.703 81.609 49.7928 81.357 50.1557C81.1049 50.5185 81.1947 51.017 81.5576 51.2691L82.4704 49.955ZM83.6188 53.0763C83.9126 53.4064 84.4182 53.4358 84.7483 53.1421C85.0783 52.8483 85.1078 52.3427 84.814 52.0126L83.6188 53.0763ZM86.5506 54.6639C86.3699 54.2607 85.8965 54.0803 85.4934 54.2611C85.0902 54.4418 84.9098 54.9151 85.0906 55.3183L86.5506 54.6639ZM85.7295 57.8768C85.7581 58.3177 86.1387 58.652 86.5796 58.6235C87.0205 58.5949 87.3547 58.2143 87.3262 57.7734L85.7295 57.8768ZM86.9913 60.941C87.107 60.5146 86.8551 60.0751 86.4287 59.9594C86.0023 59.8437 85.5629 60.0955 85.4471 60.5219L86.9913 60.941ZM84.4715 62.9475C84.2722 63.3418 84.4303 63.8231 84.8246 64.0224C85.2189 64.2217 85.7001 64.0637 85.8995 63.6694L84.4715 62.9475ZM84.5139 66.0115C84.763 65.6466 84.6692 65.1489 84.3043 64.8997C83.9394 64.6506 83.4416 64.7445 83.1925 65.1093L84.5139 66.0115ZM81.6466 67.1006C81.3556 67.4331 81.3893 67.9385 81.7218 68.2295C82.0544 68.5204 82.5598 68.4867 82.8507 68.1542L81.6466 67.1006ZM80.9673 70.089C81.2909 69.7882 81.3094 69.282 81.0086 68.9584C80.7078 68.6347 80.2016 68.6163 79.878 68.9171L80.9673 70.089ZM77.9347 70.5784C77.5889 70.8533 77.5315 71.3566 77.8064 71.7024C78.0814 72.0483 78.5847 72.1057 78.9305 71.8307L77.9347 70.5784ZM76.8706 73.432C77.2132 73.153 77.2649 72.6491 76.9859 72.3065C76.707 71.9639 76.2031 71.9122 75.8605 72.1912L76.8706 73.432ZM65.4399 78.8216C64.9682 78.7562 64.4975 78.6799 64.0284 78.5932L63.7376 80.1665C64.2299 80.2575 64.7242 80.3376 65.22 80.4064L65.4399 78.8216ZM61.2387 77.9515C60.316 77.6976 59.4048 77.4053 58.5097 77.078L57.9602 78.5807C58.8956 78.9227 59.8485 79.2284 60.8142 79.4942L61.2387 77.9515ZM55.8586 75.9857C54.9833 75.5832 54.1303 75.1481 53.3046 74.6841L52.5208 76.0789C53.3842 76.5641 54.2757 77.0189 55.1902 77.4394L55.8586 75.9857ZM50.8692 73.1783C50.0673 72.6339 49.3017 72.0625 48.5783 71.4683L47.5628 72.7048C48.3251 73.3308 49.1297 73.9313 49.9706 74.5021L50.8692 73.1783ZM46.4701 69.5523C45.7866 68.8621 45.1606 68.1517 44.5987 67.4269L43.3342 68.4072C43.9383 69.1864 44.6074 69.9452 45.3332 70.6781L46.4701 69.5523ZM43.0407 65.0888C42.5708 64.2491 42.1917 63.4014 41.9111 62.5534L40.3921 63.056C40.7077 64.0097 41.1297 64.9504 41.6444 65.8702L43.0407 65.0888ZM41.3606 59.8778C41.3257 59.4246 41.3217 58.9733 41.3497 58.5247L39.7529 58.4249C39.72 58.9499 39.7249 59.4756 39.7653 60.0006L41.3606 59.8778ZM41.3497 58.5247C41.3792 58.0536 41.447 57.5943 41.55 57.1487L39.9912 56.7883C39.8685 57.319 39.7878 57.8655 39.7529 58.4249L41.3497 58.5247ZM42.607 54.5846C43.0925 53.7947 43.7031 53.0758 44.4139 52.4471L43.3539 51.2486C42.5306 51.9768 41.816 52.816 41.2439 53.7468L42.607 54.5846ZM46.7615 50.881C47.5989 50.4699 48.5014 50.1594 49.4451 49.9655L49.1232 48.3982C48.0468 48.6193 47.0156 48.9739 46.0564 49.4447L46.7615 50.881ZM52.2739 49.7451C53.1979 49.7882 54.1375 49.9441 55.0742 50.2256L55.5347 48.6933C54.471 48.3737 53.4018 48.196 52.3485 48.1468L52.2739 49.7451ZM57.6904 51.3616C58.4813 51.8186 59.2594 52.3797 60.0121 53.0546L61.0802 51.8634C60.2473 51.1165 59.3798 50.4899 58.4908 49.9763L57.6904 51.3616ZM61.9887 55.1799C62.2814 55.5538 62.5676 55.9495 62.8464 56.3677L64.1777 55.4802C63.8769 55.029 63.5669 54.6003 63.2486 54.1937L61.9887 55.1799ZM64.271 56.1769C64.4013 55.7861 64.5843 55.3798 64.8179 54.9664L63.4248 54.1795C63.1474 54.6706 62.9199 55.1706 62.7531 55.671L64.271 56.1769ZM66.4934 52.7781C67.1239 52.1337 67.852 51.5267 68.6507 50.9929L67.7616 49.6627C66.8719 50.2573 66.0584 50.9349 65.3498 51.6591L66.4934 52.7781ZM71.1242 49.6886C71.9895 49.346 72.8884 49.1038 73.7974 48.9882L73.5956 47.4009C72.5407 47.5351 71.512 47.8143 70.5352 48.201L71.1242 49.6886ZM76.5149 49.0439C76.9539 49.122 77.3912 49.2359 77.8245 49.3888L78.357 47.88C77.8398 47.6975 77.3181 47.5617 76.7952 47.4687L76.5149 49.0439ZM77.8245 49.3888C78.2721 49.5468 78.7074 49.7204 79.1286 49.9088L79.7819 48.4483C79.3202 48.2417 78.8445 48.0521 78.357 47.88L77.8245 49.3888ZM81.5576 51.2691C82.3417 51.8138 83.0344 52.4197 83.6188 53.0763L84.814 52.0126C84.1376 51.2526 83.3477 50.5645 82.4704 49.955L81.5576 51.2691ZM85.0906 55.3183C85.4512 56.1229 85.6713 56.9781 85.7295 57.8768L87.3262 57.7734C87.2552 56.6768 86.9861 55.6355 86.5506 54.6639L85.0906 55.3183ZM85.4471 60.5219C85.3332 60.9415 85.1851 61.3704 85 61.8079L86.4736 62.4313C86.6855 61.9303 86.8577 61.4332 86.9913 60.941L85.4471 60.5219ZM85 61.8079C84.834 62.2004 84.6573 62.5801 84.4715 62.9475L85.8995 63.6694C86.1011 63.2704 86.2931 62.8579 86.4736 62.4313L85 61.8079ZM83.1925 65.1093C82.7005 65.8299 82.179 66.4921 81.6466 67.1006L82.8507 68.1542C83.421 67.5025 83.9824 66.79 84.5139 66.0115L83.1925 65.1093ZM79.878 68.9171C79.2015 69.5459 78.5414 70.096 77.9347 70.5784L78.9305 71.8307C79.5583 71.3316 80.2518 70.754 80.9673 70.089L79.878 68.9171Z" fill="#C6C6C6"/>
<path d="M0.237555 41.1027C0.103772 41.5238 0.336678 41.9736 0.757765 42.1074C1.17885 42.2412 1.62866 42.0083 1.76244 41.5872L0.237555 41.1027ZM44.8271 3.44043L36.0938 0.430076L37.8534 9.49854L44.8271 3.44043ZM2.23705 40.1694C2.3837 39.7527 2.16471 39.2959 1.74793 39.1493C1.33115 39.0026 0.874404 39.2216 0.727756 39.6384L2.23705 40.1694ZM1.83943 36.7582C1.66818 37.1655 1.85953 37.6345 2.26682 37.8057C2.67411 37.977 3.14311 37.7856 3.31436 37.3783L1.83943 36.7582ZM4.5545 34.653C4.74897 34.2562 4.585 33.777 4.18827 33.5825C3.79154 33.3881 3.31228 33.552 3.11781 33.9487L4.5545 34.653ZM4.55382 31.2169C4.33739 31.602 4.4742 32.0898 4.85938 32.3062C5.24457 32.5226 5.73228 32.3858 5.94871 32.0006L4.55382 31.2169ZM7.48751 29.4303C7.72474 29.0576 7.6149 28.5631 7.24216 28.3259C6.86942 28.0886 6.37495 28.1985 6.13771 28.5712L7.48751 29.4303ZM7.86301 26.0158C7.60601 26.3752 7.68903 26.8749 8.04843 27.1319C8.40783 27.3888 8.90751 27.3058 9.1645 26.9464L7.86301 26.0158ZM10.9732 24.5546C11.249 24.2095 11.1927 23.7061 10.8475 23.4303C10.5023 23.1545 9.99895 23.2108 9.72317 23.556L10.9732 24.5546ZM11.7099 21.1998C11.4163 21.5299 11.4459 22.0356 11.776 22.3292C12.1061 22.6229 12.6118 22.5933 12.9054 22.2632L11.7099 21.1998ZM14.9563 20.0761C15.2669 19.7619 15.264 19.2553 14.9498 18.9447C14.6355 18.6341 14.129 18.6371 13.8184 18.9513L14.9563 20.0761ZM16.0428 16.8162C15.7161 17.1137 15.6924 17.6197 15.9899 17.9464C16.2874 18.273 16.7934 18.2967 17.12 17.9993L16.0428 16.8162ZM19.3886 16.0403C19.7305 15.7604 19.7808 15.2564 19.5009 14.9145C19.2211 14.5726 18.717 14.5223 18.3751 14.8022L19.3886 16.0403ZM20.8118 12.9128C20.4556 13.1743 20.3787 13.6749 20.6402 14.0311C20.9016 14.3873 21.4022 14.4642 21.7584 14.2027L20.8118 12.9128ZM24.221 12.4939C24.5906 12.2518 24.6939 11.7559 24.4517 11.3863C24.2095 11.0168 23.7137 10.9135 23.3441 11.1556L24.221 12.4939ZM25.9669 9.53513C25.585 9.75726 25.4554 10.2469 25.6775 10.6289C25.8997 11.0108 26.3894 11.1403 26.7713 10.9182L25.9669 9.53513ZM29.402 9.48098C29.7953 9.27961 29.9508 8.79756 29.7495 8.40429C29.5481 8.01102 29.0661 7.85545 28.6728 8.05682L29.402 9.48098ZM31.4535 6.72596C31.05 6.90593 30.8688 7.37893 31.0487 7.78244C31.2287 8.18596 31.7017 8.36719 32.1052 8.18722L31.4535 6.72596ZM34.875 7.04025C35.2877 6.88227 35.4941 6.4197 35.3361 6.00709C35.1781 5.59447 34.7155 5.38805 34.3029 5.54604L34.875 7.04025ZM37.2102 4.52166C36.7897 4.65723 36.5587 5.10803 36.6943 5.52854C36.8298 5.94906 37.2806 6.18005 37.7011 6.04447L37.2102 4.52166ZM40.5783 5.20145C41.0054 5.08862 41.2603 4.65086 41.1474 4.22368C41.0346 3.7965 40.5968 3.54167 40.1697 3.6545L40.5783 5.20145ZM43.1697 2.94719C42.7371 3.0371 42.4593 3.46066 42.5492 3.89325C42.6391 4.32583 43.0627 4.60362 43.4953 4.51371L43.1697 2.94719ZM1.76244 41.5872C1.91285 41.1138 2.07108 40.6411 2.23705 40.1694L0.727756 39.6384C0.556385 40.1254 0.392953 40.6136 0.237555 41.1027L1.76244 41.5872ZM3.31436 37.3783C3.6989 36.4637 4.1125 35.5547 4.5545 34.653L3.11781 33.9487C2.66239 34.8779 2.23603 35.8149 1.83943 36.7582L3.31436 37.3783ZM5.94871 32.0006C6.43531 31.1346 6.94845 30.2773 7.48751 29.4303L6.13771 28.5712C5.58301 29.4428 5.05483 30.3252 4.55382 31.2169L5.94871 32.0006ZM9.1645 26.9464C9.74325 26.1371 10.3463 25.3393 10.9732 24.5546L9.72317 23.556C9.07856 24.3628 8.4583 25.1833 7.86301 26.0158L9.1645 26.9464ZM12.9054 22.2632C13.5669 21.5195 14.2507 20.7899 14.9563 20.0761L13.8184 18.9513C13.093 19.6852 12.39 20.4352 11.7099 21.1998L12.9054 22.2632ZM17.12 17.9993C17.8559 17.3293 18.6123 16.6758 19.3886 16.0403L18.3751 14.8022C17.5769 15.4556 16.7993 16.1274 16.0428 16.8162L17.12 17.9993ZM21.7584 14.2027C22.5606 13.614 23.3817 13.0439 24.221 12.4939L23.3441 11.1556C22.4809 11.7213 21.6366 12.3075 20.8118 12.9128L21.7584 14.2027ZM26.7713 10.9182C27.6311 10.4181 28.5082 9.93864 29.402 9.48098L28.6728 8.05682C27.7534 8.52758 26.8513 9.02078 25.9669 9.53513L26.7713 10.9182ZM32.1052 8.18722C33.013 7.78236 33.9364 7.39964 34.875 7.04025L34.3029 5.54604C33.3373 5.91576 32.3874 6.30947 31.4535 6.72596L32.1052 8.18722ZM37.7011 6.04447C38.6462 5.73977 39.6054 5.4584 40.5783 5.20145L40.1697 3.6545C39.169 3.91879 38.1824 4.20822 37.2102 4.52166L37.7011 6.04447ZM0.237555 41.1027C0.103772 41.5238 0.336678 41.9736 0.757765 42.1074C1.17885 42.2412 1.62866 42.0083 1.76244 41.5872L0.237555 41.1027ZM44.8271 3.44043L36.0938 0.430076L37.8534 9.49854L44.8271 3.44043ZM2.23705 40.1694C2.3837 39.7527 2.16471 39.2959 1.74793 39.1493C1.33115 39.0026 0.874404 39.2216 0.727756 39.6384L2.23705 40.1694ZM1.83943 36.7582C1.66818 37.1655 1.85953 37.6345 2.26682 37.8057C2.67411 37.977 3.14311 37.7856 3.31436 37.3783L1.83943 36.7582ZM4.5545 34.653C4.74897 34.2562 4.585 33.777 4.18827 33.5825C3.79154 33.3881 3.31228 33.552 3.11781 33.9487L4.5545 34.653ZM4.55382 31.2169C4.33739 31.602 4.4742 32.0898 4.85938 32.3062C5.24457 32.5226 5.73228 32.3858 5.94871 32.0006L4.55382 31.2169ZM7.48751 29.4303C7.72474 29.0576 7.6149 28.5631 7.24216 28.3259C6.86942 28.0886 6.37495 28.1985 6.13771 28.5712L7.48751 29.4303ZM7.86301 26.0158C7.60601 26.3752 7.68903 26.8749 8.04843 27.1319C8.40783 27.3888 8.90751 27.3058 9.1645 26.9464L7.86301 26.0158ZM10.9732 24.5546C11.249 24.2095 11.1927 23.7061 10.8475 23.4303C10.5023 23.1545 9.99895 23.2108 9.72317 23.556L10.9732 24.5546ZM11.7099 21.1998C11.4163 21.5299 11.4459 22.0356 11.776 22.3292C12.1061 22.6229 12.6118 22.5933 12.9054 22.2632L11.7099 21.1998ZM14.9563 20.0761C15.2669 19.7619 15.264 19.2553 14.9498 18.9447C14.6355 18.6341 14.129 18.6371 13.8184 18.9513L14.9563 20.0761ZM16.0428 16.8162C15.7161 17.1137 15.6924 17.6197 15.9899 17.9464C16.2874 18.273 16.7934 18.2967 17.12 17.9993L16.0428 16.8162ZM19.3886 16.0403C19.7305 15.7604 19.7808 15.2564 19.5009 14.9145C19.2211 14.5726 18.717 14.5223 18.3751 14.8022L19.3886 16.0403ZM20.8118 12.9128C20.4556 13.1743 20.3787 13.6749 20.6402 14.0311C20.9016 14.3873 21.4022 14.4642 21.7584 14.2027L20.8118 12.9128ZM24.221 12.4939C24.5906 12.2518 24.6939 11.7559 24.4517 11.3863C24.2095 11.0168 23.7137 10.9135 23.3441 11.1556L24.221 12.4939ZM25.9669 9.53513C25.585 9.75726 25.4554 10.2469 25.6775 10.6289C25.8997 11.0108 26.3894 11.1403 26.7713 10.9182L25.9669 9.53513ZM29.402 9.48098C29.7953 9.27961 29.9508 8.79756 29.7495 8.40429C29.5481 8.01102 29.0661 7.85545 28.6728 8.05682L29.402 9.48098ZM31.4535 6.72596C31.05 6.90593 30.8688 7.37893 31.0487 7.78244C31.2287 8.18596 31.7017 8.36719 32.1052 8.18722L31.4535 6.72596ZM34.875 7.04025C35.2877 6.88227 35.4941 6.4197 35.3361 6.00709C35.1781 5.59447 34.7155 5.38805 34.3029 5.54604L34.875 7.04025ZM37.2102 4.52166C36.7897 4.65723 36.5587 5.10803 36.6943 5.52854C36.8298 5.94906 37.2806 6.18005 37.7011 6.04447L37.2102 4.52166ZM40.5783 5.20145C41.0054 5.08862 41.2603 4.65086 41.1474 4.22368C41.0346 3.7965 40.5968 3.54167 40.1697 3.6545L40.5783 5.20145ZM43.1697 2.94719C42.7371 3.0371 42.4593 3.46066 42.5492 3.89325C42.6391 4.32583 43.0627 4.60362 43.4953 4.51371L43.1697 2.94719ZM1.76244 41.5872C1.91285 41.1138 2.07108 40.6411 2.23705 40.1694L0.727756 39.6384C0.556385 40.1254 0.392953 40.6136 0.237555 41.1027L1.76244 41.5872ZM3.31436 37.3783C3.6989 36.4637 4.1125 35.5547 4.5545 34.653L3.11781 33.9487C2.66239 34.8779 2.23603 35.8149 1.83943 36.7582L3.31436 37.3783ZM5.94871 32.0006C6.43531 31.1346 6.94845 30.2773 7.48751 29.4303L6.13771 28.5712C5.58301 29.4428 5.05483 30.3252 4.55382 31.2169L5.94871 32.0006ZM9.1645 26.9464C9.74325 26.1371 10.3463 25.3393 10.9732 24.5546L9.72317 23.556C9.07856 24.3628 8.4583 25.1833 7.86301 26.0158L9.1645 26.9464ZM12.9054 22.2632C13.5669 21.5195 14.2507 20.7899 14.9563 20.0761L13.8184 18.9513C13.093 19.6852 12.39 20.4352 11.7099 21.1998L12.9054 22.2632ZM17.12 17.9993C17.8559 17.3293 18.6123 16.6758 19.3886 16.0403L18.3751 14.8022C17.5769 15.4556 16.7993 16.1274 16.0428 16.8162L17.12 17.9993ZM21.7584 14.2027C22.5606 13.614 23.3817 13.0439 24.221 12.4939L23.3441 11.1556C22.4809 11.7213 21.6366 12.3075 20.8118 12.9128L21.7584 14.2027ZM26.7713 10.9182C27.6311 10.4181 28.5082 9.93864 29.402 9.48098L28.6728 8.05682C27.7534 8.52758 26.8513 9.02078 25.9669 9.53513L26.7713 10.9182ZM32.1052 8.18722C33.013 7.78236 33.9364 7.39964 34.875 7.04025L34.3029 5.54604C33.3373 5.91576 32.3874 6.30947 31.4535 6.72596L32.1052 8.18722ZM37.7011 6.04447C38.6462 5.73977 39.6054 5.4584 40.5783 5.20145L40.1697 3.6545C39.169 3.91879 38.1824 4.20822 37.2102 4.52166L37.7011 6.04447Z" fill="#C6C6C6"/>
<path d="M121.762 91.1541C121.896 90.733 121.663 90.2832 121.242 90.1494C120.821 90.0156 120.371 90.2485 120.238 90.6696L121.762 91.1541ZM77.1729 128.816L85.9062 131.827L84.1466 122.758L77.1729 128.816ZM119.763 92.0874C119.616 92.5042 119.835 92.9609 120.252 93.1076C120.669 93.2542 121.126 93.0352 121.272 92.6185L119.763 92.0874ZM120.161 95.4987C120.332 95.0914 120.14 94.6224 119.733 94.4511C119.326 94.2799 118.857 94.4712 118.686 94.8785L120.161 95.4987ZM117.446 97.6039C117.251 98.0006 117.415 98.4799 117.812 98.6743C118.208 98.8688 118.688 98.7048 118.882 98.3081L117.446 97.6039ZM117.446 101.04C117.663 100.655 117.526 100.167 117.141 99.9507C116.755 99.7342 116.268 99.871 116.051 100.256L117.446 101.04ZM114.512 102.827C114.275 103.199 114.385 103.694 114.758 103.931C115.131 104.168 115.625 104.058 115.862 103.686L114.512 102.827ZM114.137 106.241C114.394 105.882 114.311 105.382 113.952 105.125C113.592 104.868 113.092 104.951 112.836 105.31L114.137 106.241ZM111.027 107.702C110.751 108.047 110.807 108.551 111.152 108.827C111.498 109.102 112.001 109.046 112.277 108.701L111.027 107.702ZM110.29 111.057C110.584 110.727 110.554 110.221 110.224 109.928C109.894 109.634 109.388 109.664 109.095 109.994L110.29 111.057ZM107.044 112.181C106.733 112.495 106.736 113.001 107.05 113.312C107.364 113.623 107.871 113.62 108.182 113.306L107.044 112.181ZM105.957 115.441C106.284 115.143 106.308 114.637 106.01 114.31C105.713 113.984 105.207 113.96 104.88 114.258L105.957 115.441ZM102.611 116.217C102.269 116.496 102.219 117 102.499 117.342C102.779 117.684 103.283 117.734 103.625 117.455L102.611 116.217ZM101.188 119.344C101.544 119.083 101.621 118.582 101.36 118.226C101.098 117.87 100.598 117.793 100.242 118.054L101.188 119.344ZM97.779 119.763C97.4094 120.005 97.3061 120.501 97.5483 120.871C97.7905 121.24 98.2863 121.343 98.6559 121.101L97.779 119.763ZM96.0331 122.722C96.415 122.5 96.5446 122.01 96.3225 121.628C96.1003 121.246 95.6106 121.116 95.2287 121.339L96.0331 122.722ZM92.598 122.776C92.2047 122.977 92.0492 123.459 92.2505 123.853C92.4519 124.246 92.9339 124.401 93.3272 124.2L92.598 122.776ZM90.5465 125.531C90.95 125.351 91.1312 124.878 90.9513 124.474C90.7713 124.071 90.2983 123.89 89.8948 124.07L90.5465 125.531ZM87.125 125.217C86.7123 125.375 86.5059 125.837 86.6639 126.25C86.8219 126.662 87.2845 126.869 87.6971 126.711L87.125 125.217ZM84.7898 127.735C85.2103 127.6 85.4413 127.149 85.3057 126.728C85.1702 126.308 84.7194 126.077 84.2989 126.212L84.7898 127.735ZM81.4217 127.055C80.9946 127.168 80.7397 127.606 80.8526 128.033C80.9654 128.46 81.4032 128.715 81.8303 128.602L81.4217 127.055ZM78.8303 129.31C79.2629 129.22 79.5407 128.796 79.4508 128.364C79.3609 127.931 78.9373 127.653 78.5047 127.743L78.8303 129.31ZM120.238 90.6696C120.087 91.143 119.929 91.6157 119.763 92.0874L121.272 92.6185C121.444 92.1314 121.607 91.6432 121.762 91.1541L120.238 90.6696ZM118.686 94.8785C118.301 95.7931 117.888 96.7021 117.446 97.6039L118.882 98.3081C119.338 97.379 119.764 96.4419 120.161 95.4987L118.686 94.8785ZM116.051 100.256C115.565 101.122 115.052 101.98 114.512 102.827L115.862 103.686C116.417 102.814 116.945 101.932 117.446 101.04L116.051 100.256ZM112.836 105.31C112.257 106.12 111.654 106.918 111.027 107.702L112.277 108.701C112.921 107.894 113.542 107.074 114.137 106.241L112.836 105.31ZM109.095 109.994C108.433 110.737 107.749 111.467 107.044 112.181L108.182 113.306C108.907 112.572 109.61 111.822 110.29 111.057L109.095 109.994ZM104.88 114.258C104.144 114.928 103.388 115.581 102.611 116.217L103.625 117.455C104.423 116.801 105.201 116.129 105.957 115.441L104.88 114.258ZM100.242 118.054C99.4394 118.643 98.6183 119.213 97.779 119.763L98.6559 121.101C99.5191 120.536 100.363 119.949 101.188 119.344L100.242 118.054ZM95.2287 121.339C94.3689 121.839 93.4918 122.318 92.598 122.776L93.3272 124.2C94.2466 123.729 95.1487 123.236 96.0331 122.722L95.2287 121.339ZM89.8948 124.07C88.987 124.474 88.0636 124.857 87.125 125.217L87.6971 126.711C88.6627 126.341 89.6126 125.947 90.5465 125.531L89.8948 124.07ZM84.2989 126.212C83.3538 126.517 82.3946 126.798 81.4217 127.055L81.8303 128.602C82.831 128.338 83.8176 128.049 84.7898 127.735L84.2989 126.212ZM121.762 91.1541C121.896 90.733 121.663 90.2832 121.242 90.1494C120.821 90.0156 120.371 90.2485 120.238 90.6696L121.762 91.1541ZM77.1729 128.816L85.9062 131.827L84.1466 122.758L77.1729 128.816ZM119.763 92.0874C119.616 92.5042 119.835 92.9609 120.252 93.1076C120.669 93.2542 121.126 93.0352 121.272 92.6185L119.763 92.0874ZM120.161 95.4987C120.332 95.0914 120.14 94.6224 119.733 94.4511C119.326 94.2799 118.857 94.4712 118.686 94.8785L120.161 95.4987ZM117.446 97.6039C117.251 98.0006 117.415 98.4799 117.812 98.6743C118.208 98.8688 118.688 98.7048 118.882 98.3081L117.446 97.6039ZM117.446 101.04C117.663 100.655 117.526 100.167 117.141 99.9507C116.755 99.7342 116.268 99.871 116.051 100.256L117.446 101.04ZM114.512 102.827C114.275 103.199 114.385 103.694 114.758 103.931C115.131 104.168 115.625 104.058 115.862 103.686L114.512 102.827ZM114.137 106.241C114.394 105.882 114.311 105.382 113.952 105.125C113.592 104.868 113.092 104.951 112.836 105.31L114.137 106.241ZM111.027 107.702C110.751 108.047 110.807 108.551 111.152 108.827C111.498 109.102 112.001 109.046 112.277 108.701L111.027 107.702ZM110.29 111.057C110.584 110.727 110.554 110.221 110.224 109.928C109.894 109.634 109.388 109.664 109.095 109.994L110.29 111.057ZM107.044 112.181C106.733 112.495 106.736 113.001 107.05 113.312C107.364 113.623 107.871 113.62 108.182 113.306L107.044 112.181ZM105.957 115.441C106.284 115.143 106.308 114.637 106.01 114.31C105.713 113.984 105.207 113.96 104.88 114.258L105.957 115.441ZM102.611 116.217C102.269 116.496 102.219 117 102.499 117.342C102.779 117.684 103.283 117.734 103.625 117.455L102.611 116.217ZM101.188 119.344C101.544 119.083 101.621 118.582 101.36 118.226C101.098 117.87 100.598 117.793 100.242 118.054L101.188 119.344ZM97.779 119.763C97.4094 120.005 97.3061 120.501 97.5483 120.871C97.7905 121.24 98.2863 121.343 98.6559 121.101L97.779 119.763ZM96.0331 122.722C96.415 122.5 96.5446 122.01 96.3225 121.628C96.1003 121.246 95.6106 121.116 95.2287 121.339L96.0331 122.722ZM92.598 122.776C92.2047 122.977 92.0492 123.459 92.2505 123.853C92.4519 124.246 92.9339 124.401 93.3272 124.2L92.598 122.776ZM90.5465 125.531C90.95 125.351 91.1312 124.878 90.9513 124.474C90.7713 124.071 90.2983 123.89 89.8948 124.07L90.5465 125.531ZM87.125 125.217C86.7123 125.375 86.5059 125.837 86.6639 126.25C86.8219 126.662 87.2845 126.869 87.6971 126.711L87.125 125.217ZM84.7898 127.735C85.2103 127.6 85.4413 127.149 85.3057 126.728C85.1702 126.308 84.7194 126.077 84.2989 126.212L84.7898 127.735ZM81.4217 127.055C80.9946 127.168 80.7397 127.606 80.8526 128.033C80.9654 128.46 81.4032 128.715 81.8303 128.602L81.4217 127.055ZM78.8303 129.31C79.2629 129.22 79.5407 128.796 79.4508 128.364C79.3609 127.931 78.9373 127.653 78.5047 127.743L78.8303 129.31ZM120.238 90.6696C120.087 91.143 119.929 91.6157 119.763 92.0874L121.272 92.6185C121.444 92.1314 121.607 91.6432 121.762 91.1541L120.238 90.6696ZM118.686 94.8785C118.301 95.7931 117.888 96.7021 117.446 97.6039L118.882 98.3081C119.338 97.379 119.764 96.4419 120.161 95.4987L118.686 94.8785ZM116.051 100.256C115.565 101.122 115.052 101.98 114.512 102.827L115.862 103.686C116.417 102.814 116.945 101.932 117.446 101.04L116.051 100.256ZM112.836 105.31C112.257 106.12 111.654 106.918 111.027 107.702L112.277 108.701C112.921 107.894 113.542 107.074 114.137 106.241L112.836 105.31ZM109.095 109.994C108.433 110.737 107.749 111.467 107.044 112.181L108.182 113.306C108.907 112.572 109.61 111.822 110.29 111.057L109.095 109.994ZM104.88 114.258C104.144 114.928 103.388 115.581 102.611 116.217L103.625 117.455C104.423 116.801 105.201 116.129 105.957 115.441L104.88 114.258ZM100.242 118.054C99.4394 118.643 98.6183 119.213 97.779 119.763L98.6559 121.101C99.5191 120.536 100.363 119.949 101.188 119.344L100.242 118.054ZM95.2287 121.339C94.3689 121.839 93.4918 122.318 92.598 122.776L93.3272 124.2C94.2466 123.729 95.1487 123.236 96.0331 122.722L95.2287 121.339ZM89.8948 124.07C88.987 124.474 88.0636 124.857 87.125 125.217L87.6971 126.711C88.6627 126.341 89.6126 125.947 90.5465 125.531L89.8948 124.07ZM84.2989 126.212C83.3538 126.517 82.3946 126.798 81.4217 127.055L81.8303 128.602C82.831 128.338 83.8176 128.049 84.7898 127.735L84.2989 126.212Z" fill="#C6C6C6"/>
</svg>
